<?xml version="1.0" standalone="no"?>
<!DOCTYPE svg PUBLIC "-//W3C//DTD SVG 20010904//EN"
 "http://www.w3.org/TR/2001/REC-SVG-20010904/DTD/svg10.dtd">
<svg version="1.0" xmlns="http://www.w3.org/2000/svg"
 width="512.000000pt" height="512.000000pt" viewBox="0 0 512.000000 512.000000"
 preserveAspectRatio="xMidYMid meet">

<g transform="translate(0.000000,512.000000) scale(0.100000,-0.100000)"
fill="#000000" stroke="none">
<path d="M420 4953 c-210 -29 -367 -168 -409 -361 -16 -75 -16 -2859 0 -2934
35 -162 156 -291 325 -344 56 -18 122 -19 1279 -21 671 -1 1230 -2 1242 -3
l23 0 2 -292 3 -293 1115 0 1115 0 0 755 0 755 -562 3 -563 2 0 1160 c0 821
-3 1174 -11 1212 -34 158 -151 287 -312 341 l-62 21 -1580 1 c-869 1 -1591 0
-1605 -2z m3186 -266 c38 -15 74 -43 103 -83 19 -26 24 -48 28 -133 l6 -101
-1748 0 -1748 0 6 101 c4 85 9 107 28 133 29 40 65 68 103 83 23 9 426 11
1611 11 1185 0 1588 -2 1611 -11z m134 -1517 l0 -950 -375 0 -375 0 0 31 c0
44 -25 92 -59 112 -26 15 -70 17 -438 17 -378 0 -410 -1 -436 -18 -45 -30 -56
-53 -57 -113 0 -49 4 -59 31 -85 l30 -29 410 -3 409 -3 0 -294 0 -295 -1229 0
c-1205 0 -1229 0 -1272 20 -57 26 -82 47 -108 90 -21 35 -21 35 -21 1253 l0
1217 1745 0 1745 0 0 -950z m1320 -1710 l0 -700 -1060 0 -1060 0 0 693 c0 382
3 697 7 700 3 4 480 7 1060 7 l1053 0 0 -700z"/>
<path d="M1069 3448 c-14 -6 -36 -26 -48 -44 -19 -28 -23 -43 -19 -85 l5 -51
237 -237 236 -236 -230 -230 c-243 -243 -257 -262 -247 -338 11 -80 99 -121
179 -83 19 9 161 144 315 299 301 303 304 308 283 386 -7 28 -71 97 -297 323
-159 158 -301 292 -316 298 -34 12 -63 11 -98 -2z"/>
<path d="M3595 1775 c-229 -173 -391 -302 -393 -313 -2 -14 94 -91 391 -315
217 -163 400 -297 407 -297 24 0 800 592 800 610 0 19 -776 610 -801 610 -8 0
-189 -133 -404 -295z m762 -40 c194 -146 353 -270 353 -275 0 -5 -160 -129
-355 -276 l-355 -267 -355 267 c-195 147 -355 271 -355 276 0 8 698 539 709
540 3 0 164 -119 358 -265z"/>
<path d="M3894 1711 c-141 -64 -204 -229 -140 -366 62 -135 231 -195 364 -129
97 48 152 136 152 244 0 108 -59 202 -155 246 -64 30 -161 32 -221 5z m194
-60 c43 -22 83 -63 106 -108 17 -34 22 -133 7 -133 -5 0 -21 20 -35 44 -34 58
-118 132 -186 165 -70 33 -67 30 -50 41 26 17 118 11 158 -9z m-141 -86 c80
-40 160 -118 195 -189 l22 -46 -24 -25 c-13 -14 -28 -25 -34 -25 -6 0 -19 20
-29 45 -22 53 -84 125 -133 156 -19 12 -60 29 -90 38 l-54 16 20 33 c11 18 28
32 39 32 10 0 50 -16 88 -35z m-62 -123 c72 -36 118 -89 143 -159 l11 -33 -45
0 c-99 0 -204 98 -204 190 0 30 1 31 33 25 17 -4 46 -14 62 -23z"/>
</g>
</svg>
